<svg width="49" height="48" fill="none" xmlns="http://www.w3.org/2000/svg"><g clip-path="url(#clip0_218_58)"><path d="M36.25 13.5v21a3 3 0 01-3 3h-27a3 3 0 01-3-3v-21a3 3 0 013-3h27a3 3 0 013 3zm10.875.047a1.543 1.543 0 00-1.243.229l-6.298 4.198a.75.75 0 00-.334.624v10.804a.749.749 0 00.334.624l6.333 4.223a1.5 1.5 0 001.61.035 1.562 1.562 0 00.723-1.344V15a1.5 1.5 0 00-1.125-1.453z" fill="#FF9807"/></g><defs><clipPath id="clip0_218_58"><path fill="#fff" transform="translate(.25)" d="M0 0h48v48H0z"/></clipPath></defs></svg>