<svg width="49" height="48" viewBox="0 0 49 48" fill="none" xmlns="http://www.w3.org/2000/svg">
<g clip-path="url(#clip0_218_58)">
<path d="M36.25 13.5V34.5C36.25 35.2956 35.9339 36.0587 35.3713 36.6213C34.8087 37.1839 34.0456 37.5 33.25 37.5H6.25C5.45435 37.5 4.69129 37.1839 4.12868 36.6213C3.56607 36.0587 3.25 35.2956 3.25 34.5V13.5C3.25 12.7044 3.56607 11.9413 4.12868 11.3787C4.69129 10.8161 5.45435 10.5 6.25 10.5H33.25C34.0456 10.5 34.8087 10.8161 35.3713 11.3787C35.9339 11.9413 36.25 12.7044 36.25 13.5ZM47.125 13.5469C46.9134 13.4951 46.6932 13.4887 46.4789 13.5281C46.2647 13.5676 46.0612 13.6519 45.8819 13.7756L39.5837 17.9738C39.481 18.0423 39.3968 18.1352 39.3386 18.2441C39.2803 18.353 39.2499 18.4746 39.25 18.5981V29.4019C39.2499 29.5254 39.2803 29.647 39.3386 29.7559C39.3968 29.8648 39.481 29.9577 39.5837 30.0262L45.9175 34.2488C46.1546 34.4069 46.4318 34.4942 46.7167 34.5005C47.0016 34.5068 47.2824 34.4319 47.5262 34.2844C47.7519 34.141 47.9369 33.942 48.0636 33.7067C48.1903 33.4713 48.2545 33.2073 48.25 32.94V15C48.2502 14.6673 48.1397 14.344 47.9361 14.081C47.7324 13.8179 47.4471 13.63 47.125 13.5469Z" fill="#FF9807"/>
</g>
<defs>
<clipPath id="clip0_218_58">
<rect width="48" height="48" fill="white" transform="translate(0.25)"/>
</clipPath>
</defs>
</svg>
