<svg width="16" height="16" fill="none" xmlns="http://www.w3.org/2000/svg"><path d="M14.646 4.345a1.5 1.5 0 00-.906-1.025C11.597 2.493 8.187 2.5 8 2.5c-.188 0-3.598-.007-5.74.82a1.5 1.5 0 00-.906 1.025C1.192 4.969 1 6.109 1 8c0 1.891.192 3.031.354 3.655a1.5 1.5 0 00.906 1.026c2.053.792 5.265.819 5.699.819h.082c.434 0 3.648-.027 5.699-.82a1.5 1.5 0 00.906-1.025C14.807 11.03 15 9.891 15 8c0-1.891-.193-3.031-.354-3.655zm-4.61 4.063l-2.5 1.75a.5.5 0 01-.786-.408v-3.5a.5.5 0 01.787-.41l2.5 1.75a.5.5 0 010 .82v-.002z" fill="#fff"/></svg>