<svg width="49" height="48" viewBox="0 0 49 48" fill="none" xmlns="http://www.w3.org/2000/svg">
<path d="M40.75 7.5H7.75C6.95435 7.5 6.19129 7.81607 5.62868 8.37868C5.06607 8.94129 4.75 9.70435 4.75 10.5V37.5C4.75 38.2956 5.06607 39.0587 5.62868 39.6213C6.19129 40.1839 6.95435 40.5 7.75 40.5H40.75C41.5457 40.5 42.3087 40.1839 42.8713 39.6213C43.4339 39.0587 43.75 38.2956 43.75 37.5V10.5C43.75 9.70435 43.4339 8.94129 42.8713 8.37868C42.3087 7.81607 41.5457 7.5 40.75 7.5ZM34.75 10.5H40.75V13.5H34.75V10.5ZM13.75 37.5H7.75V34.5H13.75V37.5ZM13.75 13.5H7.75V10.5H13.75V13.5ZM22.75 37.5H16.75V34.5H22.75V37.5ZM22.75 13.5H16.75V10.5H22.75V13.5ZM31.75 37.5H25.75V34.5H31.75V37.5ZM31.75 13.5H25.75V10.5H31.75V13.5ZM40.75 37.5H34.75V34.5H40.75V37.5Z" fill="#FF9807"/>
</svg>
